<svg width="34" height="34" viewBox="0 0 34 34" fill="none" xmlns="http://www.w3.org/2000/svg">
<g clip-path="url(#clip0_100_8112)">
<path d="M17 34C7.6 34 0 26.4 0 17C0 7.6 7.6 0 17 0C26.4 0 34 7.6 34 17C34 26.4 26.4 34 17 34ZM17 2C8.7 2 2 8.7 2 17C2 25.3 8.7 32 17 32C25.3 32 32 25.3 32 17C32 8.7 25.3 2 17 2Z" fill="white"/>
<path d="M24.2827 8.302L25.6967 9.717L9.71673 25.697L8.30273 24.283L24.2827 8.302Z" fill="white"/>
<path d="M9.71673 8.302L25.6967 24.282L24.2827 25.697L8.30273 9.717L9.71673 8.302Z" fill="white"/>
</g>
<defs>
<clipPath id="clip0_100_8112">
<rect width="34" height="34" fill="white"/>
</clipPath>
</defs>
</svg>
